name D:\school\WTK\thesis\model\3dpredictsim\Results\Batchsim_tmt_linear_v2\Pog_s1_tmt_aCst_d02_k800_ig24_act.mot
datacolumns 128
datarows 4
range 1.85795888 1.89511805
endheader
time	pelvis_tilt	pelvis_list	pelvis_rotation	pelvis_tx	pelvis_ty	pelvis_tz	hip_flexion_l	hip_adduction_l	hip_rotation_l	hip_flexion_r	hip_adduction_r	hip_rotation_r	knee_angle_l	knee_angle_r	ankle_angle_l	ankle_angle_r	subtalar_angle_l	subtalar_angle_r	tmt_angle_l	tmt_angle_r	mtp_angle_l	mtp_angle_r	lumbar_extension	lumbar_bending	lumbar_rotation	arm_flex_l	arm_add_l	arm_rot_l	arm_flex_r	arm_add_r	arm_rot_r	elbow_flex_l	elbow_flex_r	pro_sup_l	pro_sup_r	glut_med1_l/activation	glut_med2_l/activation	glut_med3_l/activation	glut_min1_l/activation	glut_min2_l/activation	glut_min3_l/activation	semimem_l/activation	semiten_l/activation	bifemlh_l/activation	bifemsh_l/activation	sar_l/activation	add_long_l/activation	add_brev_l/activation	add_mag1_l/activation	add_mag2_l/activation	add_mag3_l/activation	tfl_l/activation	pect_l/activation	grac_l/activation	glut_max1_l/activation	glut_max2_l/activation	glut_max3_l/activation	iliacus_l/activation	psoas_l/activation	quad_fem_l/activation	gem_l/activation	peri_l/activation	rect_fem_l/activation	vas_med_l/activation	vas_int_l/activation	vas_lat_l/activation	med_gas_l/activation	lat_gas_l/activation	soleus_l/activation	tib_post_l/activation	flex_dig_l/activation	flex_hal_l/activation	tib_ant_l/activation	per_brev_l/activation	per_long_l/activation	per_tert_l/activation	ext_dig_l/activation	ext_hal_l/activation	ercspn_l/activation	intobl_l/activation	extobl_l/activation	glut_med1_r/activation	glut_med2_r/activation	glut_med3_r/activation	glut_min1_r/activation	glut_min2_r/activation	glut_min3_r/activation	semimem_r/activation	semiten_r/activation	bifemlh_r/activation	bifemsh_r/activation	sar_r/activation	add_long_r/activation	add_brev_r/activation	add_mag1_r/activation	add_mag2_r/activation	add_mag3_r/activation	tfl_r/activation	pect_r/activation	grac_r/activation	glut_max1_r/activation	glut_max2_r/activation	glut_max3_r/activation	iliacus_r/activation	psoas_r/activation	quad_fem_r/activation	gem_r/activation	peri_r/activation	rect_fem_r/activation	vas_med_r/activation	vas_int_r/activation	vas_lat_r/activation	med_gas_r/activation	lat_gas_r/activation	soleus_r/activation	tib_post_r/activation	flex_dig_r/activation	flex_hal_r/activation	tib_ant_r/activation	per_brev_r/activation	per_long_r/activation	per_tert_r/activation	ext_dig_r/activation	ext_hal_r/activation	ercspn_r/activation	intobl_r/activation	extobl_r/activation	
          1.85795888	          1.35063452	         -1.49462233	         -9.75823737	          2.32244859	          0.87090083	          0.00365020	         29.87940821	         -2.59508424	          0.84783195	        -21.01881016	         -0.98386787	          2.34686078	        -14.14635795	        -14.72549200	        -34.89420068	        -21.29656336	         -4.92394976	          0.83306777	         -0.04448806	          1.21716230	         -0.18306084	         40.39333686	         -0.20447744	          5.24539160	          2.71130266	        -17.28679952	        -13.93984425	         16.01991308	          0.91799411	        -14.01561627	          5.96464114	         21.78064911	         28.02287485	         86.51662706	         86.51662706	          0.10769534	          0.06876854	          0.19151378	          0.06477605	          0.06141038	          0.06099609	          0.13776911	          0.11234652	          0.12070476	          0.14595810	          0.08251016	          0.07005461	          0.10754668	          0.15813473	          0.18345805	          0.17095240	          0.06455273	          0.06764358	          0.15567180	          0.06055438	          0.12781059	          0.19001249	          0.11609793	          0.11323330	          0.12826927	          0.07069269	          0.13357377	          0.05656847	          0.05643077	          0.05622024	          0.05559408	          0.08303352	          0.08321771	          0.09211552	          0.14477342	          0.11265777	          0.16695179	          0.09136852	          0.21218374	          0.23500539	          0.12995695	          0.09838632	          0.08729368	          0.06259661	          0.18475933	          0.15048906	          0.17725579	          0.05699017	          0.05725920	          0.19697607	          0.10283692	          0.05887037	          0.07188669	          0.06531985	          0.06132047	          0.06326748	          0.09400822	          0.32711408	          0.21208863	          0.31736623	          0.06192033	          0.06222278	          0.15590447	          0.13398376	          0.07498620	          0.06162406	          0.06147372	          0.06146917	          0.33858966	          0.53229920	          0.06637321	          0.06393394	          0.05656136	          0.25169798	          0.07083389	          0.07543699	          0.07002390	          0.06517168	          0.09836207	          0.13559760	          0.15262359	          0.12697787	          0.14337748	          0.07477282	          0.23151262	          0.17067337	          0.48001232	          0.45932300	          0.19731385	          0.05673756	          0.06178393	          0.06558245	
          1.87034527	          1.37392027	         -1.63985566	         -9.77030968	          2.34401111	          0.87059688	          0.00322595	         29.54316460	         -2.56911811	          1.01150744	        -20.70404046	         -1.16567671	          2.01144744	        -15.34195129	        -16.84921173	        -33.30330270	        -24.47500778	         -4.47053743	          0.80672233	         -0.02446512	          0.93336583	          0.40463678	         40.26427988	          0.13555074	          5.02057136	          2.84639931	        -19.52750064	        -13.93634200	         16.17018929	          0.74659111	        -14.06290600	          6.61303834	         22.41515547	         28.61318818	         86.51662706	         86.51662706	          0.14508594	          0.11143783	          0.19159892	          0.06048100	          0.06104385	          0.06143240	          0.11684817	          0.09674476	          0.10316332	          0.12279606	          0.07155106	          0.06396500	          0.09353996	          0.14188028	          0.18364669	          0.16018190	          0.08476116	          0.06354658	          0.13211219	          0.07291879	          0.13848437	          0.17298584	          0.09792182	          0.09571208	          0.18988699	          0.06383195	          0.11805473	          0.05687749	          0.07477322	          0.07484138	          0.07968012	          0.07244629	          0.07260125	          0.07961367	          0.12989472	          0.09862494	          0.15183838	          0.08248817	          0.18437119	          0.20162971	          0.26867622	          0.09049901	          0.07827708	          0.05996939	          0.15602618	          0.12623949	          0.14924580	          0.05476449	          0.05240961	          0.16519396	          0.08737898	          0.05753019	          0.10577507	          0.06188857	          0.06079189	          0.06387473	          0.08152258	          0.27653586	          0.24501702	          0.26941565	          0.06177148	          0.06265408	          0.13092774	          0.11457583	          0.06749348	          0.06123785	          0.06090695	          0.06091402	          0.28390616	          0.44456466	          0.05849400	          0.05880301	          0.05528821	          0.20928757	          0.06226170	          0.06582449	          0.06134022	          0.06475678	          0.08559704	          0.19209756	          0.12734261	          0.10742558	          0.12059767	          0.15385250	          0.26545375	          0.16763805	          0.63290457	          0.59888442	          0.16852668	          0.06013795	          0.05616112	          0.06555377	
          1.88273166	          1.40376973	         -1.77187116	         -9.73530839	          2.36549292	          0.86968352	          0.00276988	         29.06112368	         -2.44872763	          1.17677328	        -20.16211966	         -1.32149434	          1.71735821	        -17.07044486	        -19.46405762	        -30.78485140	        -26.83566111	         -3.95882300	          0.71609764	          0.18465327	          0.73190360	          2.25890509	         38.10618843	          0.45459009	          4.75434455	          2.96629006	        -21.67709015	        -13.94638888	         16.40589749	          0.57532994	        -14.11901755	          7.24054218	         22.92354852	         29.17108362	         86.51662706	         86.51662706	          0.17282308	          0.18094793	          0.38911998	          0.13125445	          0.07700729	          0.23440305	          0.09912039	          0.08351029	          0.08815466	          0.10370285	          0.06372415	          0.07479913	          0.08230264	          0.12152666	          0.15705086	          0.13827569	          0.07614453	          0.07572449	          0.11229368	          0.06747592	          0.12081959	          0.14771682	          0.08360632	          0.08183515	          0.16122691	          0.15779039	          0.35969815	          0.06666427	          0.24749193	          0.22287535	          0.21702304	          0.06553178	          0.06572698	          0.07099018	          0.32161841	          0.42600150	          0.47201831	          0.07078643	          0.15636281	          0.17680022	          0.22653605	          0.07930836	          0.06980340	          0.05897269	          0.13082590	          0.10617309	          0.12570441	          0.05415036	          0.05221974	          0.13869679	          0.07493861	          0.05680839	          0.15808282	          0.06129464	          0.06099451	          0.06212610	          0.07125697	          0.23462286	          0.28399358	          0.32602406	          0.06332979	          0.11188733	          0.11036228	          0.09856286	          0.06168106	          0.06117806	          0.06089636	          0.06144688	          0.23787348	          0.37114048	          0.05451699	          0.05816883	          0.05475211	          0.17418967	          0.07087330	          0.07700657	          0.06082824	          0.09706717	          0.07951559	          0.16465535	          0.10630418	          0.09152589	          0.10184201	          0.21809433	          0.27154266	          0.15844123	          0.65130226	          0.75123060	          0.14486189	          0.06575681	          0.05786504	          0.08457249	
          1.89511805	          1.43462435	         -1.88664332	         -9.64833437	          2.38664995	          0.86852319	          0.00228136	         28.30110532	         -2.25025981	          1.33951253	        -19.39929163	         -1.45206672	          1.45210694	        -18.93970836	        -22.44649931	        -27.20432276	        -28.54319122	         -3.37782281	          0.56479110	          0.45704344	          0.51009157	          5.04552757	         34.07624069	          0.74109505	          4.44878467	          3.07088979	        -23.66054685	        -13.95544818	         16.72954171	          0.44168427	        -14.16670356	          7.85810596	         23.24133775	         29.64540730	         86.51662706	         86.51662706	          0.23005084	          0.34609836	          0.52708701	          0.11242275	          0.18619934	          0.30724731	          0.08530905	          0.07304409	          0.07674387	          0.08848335	          0.07199321	          0.06721328	          0.07180240	          0.10372318	          0.13394396	          0.12074662	          0.06797728	          0.06909182	          0.09577297	          0.23023947	          0.17454967	          0.12760339	          0.07215582	          0.07092404	          0.21392901	          0.13485683	          0.34167500	          0.06507954	          0.21156252	          0.25746075	          0.29578203	          0.11876543	          0.15144725	          0.10330617	          0.37035902	          0.45956560	          0.43422008	          0.06114472	          0.13156782	          0.14797286	          0.19053668	          0.06930561	          0.06315164	          0.05974855	          0.10977375	          0.09036339	          0.10611932	          0.05419100	          0.05245738	          0.11680608	          0.06551047	          0.05689536	          0.21552652	          0.06171275	          0.06206861	          0.06125687	          0.06360457	          0.19934336	          0.37032747	          0.27828500	          0.12624958	          0.12595988	          0.09359527	          0.08579117	          0.06113440	          0.06116037	          0.06091309	          0.06593540	          0.19923568	          0.30965616	          0.05526769	          0.05861081	          0.05546537	          0.14507045	          0.07440210	          0.07003392	          0.07363497	          0.09121268	          0.07218209	          0.14188935	          0.08876595	          0.07881309	          0.08642923	          0.23294996	          0.24825868	          0.14613893	          0.56008876	          0.82594292	          0.47813797	          0.07868490	          0.06044673	          0.07508056	
